<?xml version="1.0" encoding="utf-8"?>
<!-- Generator: Adobe Illustrator 28.2.0, SVG Export Plug-In . SVG Version: 6.00 Build 0)  -->
<svg version="1.1" id="Ebene_1" xmlns="http://www.w3.org/2000/svg" xmlns:xlink="http://www.w3.org/1999/xlink" x="0px" y="0px"
	 viewBox="0 0 32 32" style="enable-background:new 0 0 32 32;" xml:space="preserve">
<path d="M16,10.7c-2.9,0-5.2,2.3-5.2,5.2c0,2.9,2.3,5.2,5.2,5.2s5.2-2.4,5.2-5.2C21.2,13.1,18.9,10.7,16,10.7z M16,19.5
	c-1.9,0-3.5-1.6-3.5-3.5s1.6-3.5,3.5-3.5s3.5,1.6,3.5,3.5S17.9,19.5,16,19.5z M16.9,7.2L16.9,7.2c0-0.5-0.4-0.9-0.9-0.9
	c-5.3,0-9.6,4.3-9.6,9.6c0,0.5,0.4,0.9,0.9,0.9s0.9-0.4,0.9-0.9c0-4.3,3.5-7.9,7.9-7.9C16.5,8.1,16.9,7.7,16.9,7.2z M16,14.7
	c-0.7,0-1.3,0.6-1.3,1.3s0.6,1.3,1.3,1.3s1.3-0.6,1.3-1.3S16.7,14.7,16,14.7z M16,2C8.3,2,2,8.3,2,16c0,1.8,0.3,3.6,1,5.2h1.9
	c-0.7-1.6-1.1-3.3-1.1-5.2C3.8,9.2,9.2,3.8,16,3.8S28.2,9.2,28.2,16c0,1.8-0.4,3.6-1.1,5.2H29c0.6-1.6,1-3.3,1-5.2
	C30,8.3,23.7,2,16,2z M16,10.7c-2.9,0-5.2,2.3-5.2,5.2c0,2.9,2.3,5.2,5.2,5.2s5.2-2.4,5.2-5.2C21.2,13.1,18.9,10.7,16,10.7z
	 M16,19.5c-1.9,0-3.5-1.6-3.5-3.5s1.6-3.5,3.5-3.5s3.5,1.6,3.5,3.5S17.9,19.5,16,19.5z M16.9,7.2L16.9,7.2c0-0.5-0.4-0.9-0.9-0.9
	c-5.3,0-9.6,4.3-9.6,9.6c0,0.5,0.4,0.9,0.9,0.9s0.9-0.4,0.9-0.9c0-4.3,3.5-7.9,7.9-7.9C16.5,8.1,16.9,7.7,16.9,7.2z M16,14.7
	c-0.7,0-1.3,0.6-1.3,1.3s0.6,1.3,1.3,1.3s1.3-0.6,1.3-1.3S16.7,14.7,16,14.7z M16,14.7c-0.7,0-1.3,0.6-1.3,1.3s0.6,1.3,1.3,1.3
	s1.3-0.6,1.3-1.3S16.7,14.7,16,14.7z M16,10.7c-2.9,0-5.2,2.3-5.2,5.2c0,2.9,2.3,5.2,5.2,5.2s5.2-2.4,5.2-5.2
	C21.2,13.1,18.9,10.7,16,10.7z M16,19.5c-1.9,0-3.5-1.6-3.5-3.5s1.6-3.5,3.5-3.5s3.5,1.6,3.5,3.5S17.9,19.5,16,19.5z M16,14.7
	c-0.7,0-1.3,0.6-1.3,1.3s0.6,1.3,1.3,1.3s1.3-0.6,1.3-1.3S16.7,14.7,16,14.7z M16.9,7.2c0-0.5-0.4-0.9-0.9-0.9
	c-5.3,0-9.6,4.3-9.6,9.6c0,0.5,0.4,0.9,0.9,0.9s0.9-0.4,0.9-0.9c0-4.3,3.5-7.9,7.9-7.9C16.5,8.1,16.9,7.7,16.9,7.2L16.9,7.2z
	 M16,14.7c-0.7,0-1.3,0.6-1.3,1.3s0.6,1.3,1.3,1.3s1.3-0.6,1.3-1.3S16.7,14.7,16,14.7z M1.1,22.9h2.6c0.5,0,0.9,0,1.1,0.1
	c0.2,0,0.5,0.1,0.7,0.3c0.2,0.1,0.4,0.3,0.5,0.5c0.1,0.2,0.2,0.5,0.2,0.8c0,0.3-0.1,0.6-0.2,0.8c-0.2,0.3-0.4,0.4-0.7,0.6
	C5.7,26,6,26.2,6.2,26.5s0.3,0.6,0.3,1c0,0.3-0.1,0.6-0.2,0.9C6.2,28.6,6,28.8,5.7,29c-0.2,0.2-0.5,0.3-0.9,0.3c-0.2,0-0.7,0-1.6,0
	H1.1V22.9z M2.4,23.9v1.5h0.9c0.5,0,0.8,0,0.9,0c0.2,0,0.4-0.1,0.5-0.2c0.1-0.1,0.2-0.3,0.2-0.5c0-0.2-0.1-0.4-0.2-0.5
	C4.7,24.1,4.5,24,4.3,24c-0.1,0-0.5,0-1.1,0H2.4z M2.4,26.5v1.7h1.2c0.5,0,0.8,0,0.9,0c0.2,0,0.4-0.1,0.5-0.3
	c0.1-0.1,0.2-0.3,0.2-0.5c0-0.2,0-0.4-0.1-0.5c-0.1-0.1-0.2-0.2-0.4-0.3c-0.2-0.1-0.6-0.1-1.2-0.1H2.4z M7.6,29.3v-6.4h1.2v6.4H7.6z
	 M13.2,29.3v-0.7c-0.2,0.2-0.4,0.4-0.7,0.6c-0.3,0.1-0.6,0.2-0.9,0.2c-0.3,0-0.6-0.1-0.8-0.2c-0.2-0.1-0.4-0.3-0.5-0.6
	c-0.1-0.2-0.2-0.6-0.2-1v-3h1.2v2.1c0,0.7,0,1.1,0.1,1.2c0,0.1,0.1,0.3,0.2,0.4c0.1,0.1,0.3,0.1,0.5,0.1c0.2,0,0.4-0.1,0.6-0.2
	c0.2-0.1,0.3-0.3,0.3-0.4c0.1-0.2,0.1-0.6,0.1-1.3v-2h1.2v4.7H13.2z M15.5,27.6v-1.2h2.4v1.2H15.5z M19.8,29.3h-1.2v-4.7h1.1v0.7
	c0.2-0.3,0.4-0.5,0.5-0.6c0.2-0.1,0.3-0.1,0.5-0.1c0.3,0,0.6,0.1,0.8,0.2l-0.4,1.1c-0.2-0.1-0.4-0.2-0.6-0.2c-0.2,0-0.3,0-0.4,0.1
	c-0.1,0.1-0.2,0.3-0.3,0.5c-0.1,0.2-0.1,0.8-0.1,1.6V29.3z M23,26.1l-1.1-0.2c0.1-0.5,0.3-0.8,0.7-1s0.8-0.3,1.4-0.3
	c0.6,0,1,0.1,1.2,0.2c0.3,0.1,0.5,0.3,0.6,0.5c0.1,0.2,0.2,0.6,0.2,1.1l0,1.4c0,0.4,0,0.7,0.1,0.9c0,0.2,0.1,0.4,0.2,0.6h-1.2
	c0-0.1-0.1-0.2-0.1-0.4c0-0.1,0-0.1,0-0.1c-0.2,0.2-0.4,0.4-0.7,0.5c-0.2,0.1-0.5,0.2-0.8,0.2c-0.5,0-0.9-0.1-1.1-0.4
	c-0.3-0.3-0.4-0.6-0.4-1c0-0.3,0.1-0.5,0.2-0.7c0.1-0.2,0.3-0.4,0.5-0.5c0.2-0.1,0.6-0.2,1-0.3c0.6-0.1,1-0.2,1.2-0.3v-0.1
	c0-0.2-0.1-0.4-0.2-0.5c-0.1-0.1-0.3-0.2-0.7-0.2c-0.2,0-0.4,0-0.5,0.1C23.2,25.7,23.1,25.8,23,26.1z M24.7,27.1
	c-0.2,0.1-0.4,0.1-0.8,0.2c-0.3,0.1-0.6,0.1-0.7,0.2c-0.2,0.1-0.2,0.3-0.2,0.4c0,0.2,0.1,0.3,0.2,0.4s0.3,0.2,0.5,0.2
	c0.2,0,0.4-0.1,0.6-0.2c0.1-0.1,0.2-0.2,0.3-0.4c0-0.1,0-0.3,0-0.6V27.1z M26.5,24.6h1.3l1.1,3.3l1.1-3.3h1.3l-1.6,4.5l-0.3,0.8
	c-0.1,0.3-0.2,0.5-0.3,0.6c-0.1,0.1-0.2,0.3-0.3,0.3c-0.1,0.1-0.3,0.2-0.5,0.2c-0.2,0-0.4,0.1-0.6,0.1c-0.2,0-0.5,0-0.7-0.1l-0.1-1
	c0.2,0,0.4,0.1,0.5,0.1c0.3,0,0.5-0.1,0.6-0.3c0.1-0.2,0.2-0.4,0.3-0.6L26.5,24.6z"/>
</svg>
