<?xml version="1.0" encoding="utf-8"?>
<!-- Generator: Adobe Illustrator 28.2.0, SVG Export Plug-In . SVG Version: 6.00 Build 0)  -->
<svg version="1.1" id="Ebene_1" xmlns="http://www.w3.org/2000/svg" xmlns:xlink="http://www.w3.org/1999/xlink" x="0px" y="0px"
	 viewBox="0 0 32 32" style="enable-background:new 0 0 32 32;" xml:space="preserve">
<path d="M16,10.7c-2.9,0-5.2,2.3-5.2,5.2c0,2.9,2.3,5.2,5.2,5.2s5.2-2.4,5.2-5.2C21.2,13.1,18.9,10.7,16,10.7z M16,19.5
	c-1.9,0-3.5-1.6-3.5-3.5s1.6-3.5,3.5-3.5s3.5,1.6,3.5,3.5S17.9,19.5,16,19.5z M16.9,7.2L16.9,7.2c0-0.5-0.4-0.9-0.9-0.9
	c-5.3,0-9.6,4.3-9.6,9.6c0,0.5,0.4,0.9,0.9,0.9s0.9-0.4,0.9-0.9c0-4.3,3.5-7.9,7.9-7.9C16.5,8.1,16.9,7.7,16.9,7.2z M16,14.7
	c-0.7,0-1.3,0.6-1.3,1.3s0.6,1.3,1.3,1.3s1.3-0.6,1.3-1.3S16.7,14.7,16,14.7z M16,2C8.3,2,2,8.3,2,16c0,3.3,1.2,6.4,3.1,8.8v-3.2
	C4.2,19.9,3.8,18,3.8,16C3.8,9.2,9.2,3.8,16,3.8S28.2,9.2,28.2,16c0,1.8-0.4,3.6-1.1,5.2H29c0.6-1.6,1-3.3,1-5.2C30,8.3,23.7,2,16,2
	z M16,10.7c-2.9,0-5.2,2.3-5.2,5.2c0,2.9,2.3,5.2,5.2,5.2s5.2-2.4,5.2-5.2C21.2,13.1,18.9,10.7,16,10.7z M16,19.5
	c-1.9,0-3.5-1.6-3.5-3.5s1.6-3.5,3.5-3.5s3.5,1.6,3.5,3.5S17.9,19.5,16,19.5z M16.9,7.2L16.9,7.2c0-0.5-0.4-0.9-0.9-0.9
	c-5.3,0-9.6,4.3-9.6,9.6c0,0.5,0.4,0.9,0.9,0.9s0.9-0.4,0.9-0.9c0-4.3,3.5-7.9,7.9-7.9C16.5,8.1,16.9,7.7,16.9,7.2z M16,14.7
	c-0.7,0-1.3,0.6-1.3,1.3s0.6,1.3,1.3,1.3s1.3-0.6,1.3-1.3S16.7,14.7,16,14.7z M16,14.7c-0.7,0-1.3,0.6-1.3,1.3s0.6,1.3,1.3,1.3
	s1.3-0.6,1.3-1.3S16.7,14.7,16,14.7z M16,10.7c-2.9,0-5.2,2.3-5.2,5.2c0,2.9,2.3,5.2,5.2,5.2s5.2-2.4,5.2-5.2
	C21.2,13.1,18.9,10.7,16,10.7z M16,19.5c-1.9,0-3.5-1.6-3.5-3.5s1.6-3.5,3.5-3.5s3.5,1.6,3.5,3.5S17.9,19.5,16,19.5z M16,14.7
	c-0.7,0-1.3,0.6-1.3,1.3s0.6,1.3,1.3,1.3s1.3-0.6,1.3-1.3S16.7,14.7,16,14.7z M16.9,7.2c0-0.5-0.4-0.9-0.9-0.9
	c-5.3,0-9.6,4.3-9.6,9.6c0,0.5,0.4,0.9,0.9,0.9s0.9-0.4,0.9-0.9c0-4.3,3.5-7.9,7.9-7.9C16.5,8.1,16.9,7.7,16.9,7.2L16.9,7.2z
	 M16,14.7c-0.7,0-1.3,0.6-1.3,1.3s0.6,1.3,1.3,1.3s1.3-0.6,1.3-1.3S16.7,14.7,16,14.7z M6.8,22.5H10c0.7,0,1.3,0.1,1.6,0.2
	c0.5,0.1,0.9,0.4,1.3,0.8s0.6,0.8,0.8,1.4s0.3,1.2,0.3,2c0,0.7-0.1,1.3-0.3,1.8c-0.2,0.6-0.5,1.1-0.9,1.5c-0.3,0.3-0.7,0.5-1.2,0.7
	c-0.4,0.1-0.9,0.2-1.5,0.2H6.8V22.5z M8.6,24v5.7h1.3c0.5,0,0.8,0,1-0.1c0.3-0.1,0.5-0.2,0.7-0.4s0.3-0.4,0.5-0.8s0.2-0.9,0.2-1.6
	s-0.1-1.2-0.2-1.5s-0.3-0.6-0.5-0.8s-0.5-0.3-0.8-0.4C10.5,24,10,24,9.3,24H8.6z M17.7,31.1l-3.1-8.6h1.9l2.2,6.4l2.1-6.4h1.8
	l-3.1,8.6H17.7z M23.5,22.5h3.2c0.7,0,1.3,0.1,1.6,0.2c0.5,0.1,0.9,0.4,1.3,0.8s0.6,0.8,0.8,1.4s0.3,1.2,0.3,2
	c0,0.7-0.1,1.3-0.3,1.8c-0.2,0.6-0.5,1.1-0.9,1.5c-0.3,0.3-0.7,0.5-1.2,0.7c-0.4,0.1-0.9,0.2-1.5,0.2h-3.3V22.5z M25.2,24v5.7h1.3
	c0.5,0,0.8,0,1-0.1c0.3-0.1,0.5-0.2,0.7-0.4s0.3-0.4,0.5-0.8s0.2-0.9,0.2-1.6s-0.1-1.2-0.2-1.5s-0.3-0.6-0.5-0.8s-0.5-0.3-0.8-0.4
	C27.2,24,26.7,24,26,24H25.2z"/>
</svg>
